<mxfile host="app.diagrams.net" agent="Mozilla/5.0 (X11; Ubuntu; Linux x86_64; rv:133.0) Gecko/20100101 Firefox/133.0" version="24.9.3">
  <diagram name="Page-1" id="wk6D9tu7lW2pgBhPsqV3">
    <mxGraphModel>
      <root>
        <mxCell id="0" />
        <mxCell id="1" parent="0" />
        <mxCell id="2" value="Start" style="ellipse;aspect=fixed;strokeWidth=2;whiteSpace=wrap;" vertex="1" parent="1">
          <mxGeometry x="8" y="93" width="49" height="49" as="geometry" />
        </mxCell>
        <mxCell id="3" value="Both liquid containers present?" style="rhombus;strokeWidth=2;whiteSpace=wrap;" vertex="1" parent="1">
          <mxGeometry x="107" y="8" width="220" height="220" as="geometry" />
        </mxCell>
        <mxCell id="4" value="All lids closed?" style="rhombus;strokeWidth=2;whiteSpace=wrap;" vertex="1" parent="1">
          <mxGeometry x="407" y="102" width="155" height="155" as="geometry" />
        </mxCell>
        <mxCell id="5" value="Stop" style="rounded=1;arcSize=40;strokeWidth=2" vertex="1" parent="1">
          <mxGeometry x="676" y="23" width="63" height="49" as="geometry" />
        </mxCell>
        <mxCell id="6" value="Start heater" style="rhombus;strokeWidth=2;whiteSpace=wrap;" vertex="1" parent="1">
          <mxGeometry x="641" y="135" width="133" height="133" as="geometry" />
        </mxCell>
        <mxCell id="7" value="Start pump" style="rhombus;strokeWidth=2;whiteSpace=wrap;" vertex="1" parent="1">
          <mxGeometry x="824" y="138" width="127" height="127" as="geometry" />
        </mxCell>
        <mxCell id="8" value="" style="curved=1;startArrow=none;endArrow=block;exitX=1;exitY=0.51;entryX=0;entryY=0.5;" edge="1" parent="1" source="2" target="3">
          <mxGeometry relative="1" as="geometry">
            <Array as="points" />
          </mxGeometry>
        </mxCell>
        <mxCell id="9" value="Yes" style="curved=1;startArrow=none;endArrow=block;exitX=1;exitY=0.71;entryX=0;entryY=0.5;" edge="1" parent="1" source="3" target="4">
          <mxGeometry relative="1" as="geometry">
            <Array as="points">
              <mxPoint x="366" y="180" />
            </Array>
          </mxGeometry>
        </mxCell>
        <mxCell id="10" value="No" style="curved=1;startArrow=none;endArrow=block;exitX=1;exitY=0.21;entryX=0;entryY=0.4;" edge="1" parent="1" source="3" target="5">
          <mxGeometry relative="1" as="geometry">
            <Array as="points">
              <mxPoint x="366" y="32" />
              <mxPoint x="601" y="32" />
            </Array>
          </mxGeometry>
        </mxCell>
        <mxCell id="11" value="No" style="curved=1;startArrow=none;endArrow=block;exitX=1;exitY=0.2;entryX=0;entryY=0.87;" edge="1" parent="1" source="4" target="5">
          <mxGeometry relative="1" as="geometry">
            <Array as="points">
              <mxPoint x="601" y="109" />
            </Array>
          </mxGeometry>
        </mxCell>
        <mxCell id="12" value="Yes" style="curved=1;startArrow=none;endArrow=block;exitX=1;exitY=0.59;entryX=0;entryY=0.5;" edge="1" parent="1" source="4" target="6">
          <mxGeometry relative="1" as="geometry">
            <Array as="points">
              <mxPoint x="601" y="201" />
            </Array>
          </mxGeometry>
        </mxCell>
        <mxCell id="13" value="" style="curved=1;startArrow=none;endArrow=block;exitX=1;exitY=0.5;entryX=0;entryY=0.5;" edge="1" parent="1" source="6" target="7">
          <mxGeometry relative="1" as="geometry">
            <Array as="points" />
          </mxGeometry>
        </mxCell>
      </root>
    </mxGraphModel>
  </diagram>
</mxfile>
